<?xml version="1.0" encoding="utf-8" standalone="no"?>
<!DOCTYPE svg PUBLIC "-//W3C//DTD SVG 1.1//EN"
  "http://www.w3.org/Graphics/SVG/1.1/DTD/svg11.dtd">
<svg xmlns:xlink="http://www.w3.org/1999/xlink" width="648pt" height="432pt" viewBox="0 0 648 432" xmlns="http://www.w3.org/2000/svg" version="1.1">
 <metadata>
  <rdf:RDF xmlns:dc="http://purl.org/dc/elements/1.1/" xmlns:cc="http://creativecommons.org/ns#" xmlns:rdf="http://www.w3.org/1999/02/22-rdf-syntax-ns#">
   <cc:Work>
    <dc:type rdf:resource="http://purl.org/dc/dcmitype/StillImage"/>
    <dc:date>2023-03-23T20:59:02.109149</dc:date>
    <dc:format>image/svg+xml</dc:format>
    <dc:creator>
     <cc:Agent>
      <dc:title>Matplotlib v3.6.2, https://matplotlib.org/</dc:title>
     </cc:Agent>
    </dc:creator>
   </cc:Work>
  </rdf:RDF>
 </metadata>
 <defs>
  <style type="text/css">*{stroke-linejoin: round; stroke-linecap: butt}</style>
 </defs>
 <g id="figure_1">
  <g id="patch_1">
   <path d="M 0 432 
L 648 432 
L 648 0 
L 0 0 
z
" style="fill: #ffffff"/>
  </g>
  <g id="axes_1">
   <g id="matplotlib.axis_1">
    <g id="xtick_1">
     <g id="text_1">
      <!-- TV-MA -->
      <g style="fill: #262626" transform="translate(96.388844 449.056947) rotate(-60) scale(0.18 -0.18)">
       <defs>
        <path id="ArialMT-54" d="M 1659 0 
L 1659 4041 
L 150 4041 
L 150 4581 
L 3781 4581 
L 3781 4041 
L 2266 4041 
L 2266 0 
L 1659 0 
z
" transform="scale(0.015625)"/>
        <path id="ArialMT-56" d="M 1803 0 
L 28 4581 
L 684 4581 
L 1875 1253 
Q 2019 853 2116 503 
Q 2222 878 2363 1253 
L 3600 4581 
L 4219 4581 
L 2425 0 
L 1803 0 
z
" transform="scale(0.015625)"/>
        <path id="ArialMT-2d" d="M 203 1375 
L 203 1941 
L 1931 1941 
L 1931 1375 
L 203 1375 
z
" transform="scale(0.015625)"/>
        <path id="ArialMT-4d" d="M 475 0 
L 475 4581 
L 1388 4581 
L 2472 1338 
Q 2622 884 2691 659 
Q 2769 909 2934 1394 
L 4031 4581 
L 4847 4581 
L 4847 0 
L 4263 0 
L 4263 3834 
L 2931 0 
L 2384 0 
L 1059 3900 
L 1059 0 
L 475 0 
z
" transform="scale(0.015625)"/>
        <path id="ArialMT-41" d="M -9 0 
L 1750 4581 
L 2403 4581 
L 4278 0 
L 3588 0 
L 3053 1388 
L 1138 1388 
L 634 0 
L -9 0 
z
M 1313 1881 
L 2866 1881 
L 2388 3150 
Q 2169 3728 2063 4100 
Q 1975 3659 1816 3225 
L 1313 1881 
z
" transform="scale(0.015625)"/>
       </defs>
       <use xlink:href="#ArialMT-54"/>
       <use xlink:href="#ArialMT-56" x="61.083984"/>
       <use xlink:href="#ArialMT-2d" x="122.283203"/>
       <use xlink:href="#ArialMT-4d" x="155.583984"/>
       <use xlink:href="#ArialMT-41" x="238.884766"/>
      </g>
     </g>
    </g>
    <g id="xtick_2">
     <g id="text_2">
      <!-- TV-14 -->
      <g style="fill: #262626" transform="translate(148.354 443.011548) rotate(-60) scale(0.18 -0.18)">
       <defs>
        <path id="ArialMT-31" d="M 2384 0 
L 1822 0 
L 1822 3584 
Q 1619 3391 1289 3197 
Q 959 3003 697 2906 
L 697 3450 
Q 1169 3672 1522 3987 
Q 1875 4303 2022 4600 
L 2384 4600 
L 2384 0 
z
" transform="scale(0.015625)"/>
        <path id="ArialMT-34" d="M 2069 0 
L 2069 1097 
L 81 1097 
L 81 1613 
L 2172 4581 
L 2631 4581 
L 2631 1613 
L 3250 1613 
L 3250 1097 
L 2631 1097 
L 2631 0 
L 2069 0 
z
M 2069 1613 
L 2069 3678 
L 634 1613 
L 2069 1613 
z
" transform="scale(0.015625)"/>
       </defs>
       <use xlink:href="#ArialMT-54"/>
       <use xlink:href="#ArialMT-56" x="61.083984"/>
       <use xlink:href="#ArialMT-2d" x="122.283203"/>
       <use xlink:href="#ArialMT-31" x="155.583984"/>
       <use xlink:href="#ArialMT-34" x="211.199219"/>
      </g>
     </g>
    </g>
    <g id="xtick_3">
     <g id="text_3">
      <!-- TV-PG -->
      <g style="fill: #262626" transform="translate(197.077047 448.197146) rotate(-60) scale(0.18 -0.18)">
       <defs>
        <path id="ArialMT-50" d="M 494 0 
L 494 4581 
L 2222 4581 
Q 2678 4581 2919 4538 
Q 3256 4481 3484 4323 
Q 3713 4166 3852 3881 
Q 3991 3597 3991 3256 
Q 3991 2672 3619 2267 
Q 3247 1863 2275 1863 
L 1100 1863 
L 1100 0 
L 494 0 
z
M 1100 2403 
L 2284 2403 
Q 2872 2403 3119 2622 
Q 3366 2841 3366 3238 
Q 3366 3525 3220 3729 
Q 3075 3934 2838 4000 
Q 2684 4041 2272 4041 
L 1100 4041 
L 1100 2403 
z
" transform="scale(0.015625)"/>
        <path id="ArialMT-47" d="M 2638 1797 
L 2638 2334 
L 4578 2338 
L 4578 638 
Q 4131 281 3656 101 
Q 3181 -78 2681 -78 
Q 2006 -78 1454 211 
Q 903 500 622 1047 
Q 341 1594 341 2269 
Q 341 2938 620 3517 
Q 900 4097 1425 4378 
Q 1950 4659 2634 4659 
Q 3131 4659 3532 4498 
Q 3934 4338 4162 4050 
Q 4391 3763 4509 3300 
L 3963 3150 
Q 3859 3500 3706 3700 
Q 3553 3900 3268 4020 
Q 2984 4141 2638 4141 
Q 2222 4141 1919 4014 
Q 1616 3888 1430 3681 
Q 1244 3475 1141 3228 
Q 966 2803 966 2306 
Q 966 1694 1177 1281 
Q 1388 869 1791 669 
Q 2194 469 2647 469 
Q 3041 469 3416 620 
Q 3791 772 3984 944 
L 3984 1797 
L 2638 1797 
z
" transform="scale(0.015625)"/>
       </defs>
       <use xlink:href="#ArialMT-54"/>
       <use xlink:href="#ArialMT-56" x="61.083984"/>
       <use xlink:href="#ArialMT-2d" x="122.283203"/>
       <use xlink:href="#ArialMT-50" x="155.583984"/>
       <use xlink:href="#ArialMT-47" x="222.283203"/>
      </g>
     </g>
    </g>
    <g id="xtick_4">
     <g id="text_4">
      <!-- R -->
      <g style="fill: #262626" transform="translate(257.550016 412.67982) rotate(-60) scale(0.18 -0.18)">
       <defs>
        <path id="ArialMT-52" d="M 503 0 
L 503 4581 
L 2534 4581 
Q 3147 4581 3465 4457 
Q 3784 4334 3975 4021 
Q 4166 3709 4166 3331 
Q 4166 2844 3850 2509 
Q 3534 2175 2875 2084 
Q 3116 1969 3241 1856 
Q 3506 1613 3744 1247 
L 4541 0 
L 3778 0 
L 3172 953 
Q 2906 1366 2734 1584 
Q 2563 1803 2427 1890 
Q 2291 1978 2150 2013 
Q 2047 2034 1813 2034 
L 1109 2034 
L 1109 0 
L 503 0 
z
M 1109 2559 
L 2413 2559 
Q 2828 2559 3062 2645 
Q 3297 2731 3419 2920 
Q 3541 3109 3541 3331 
Q 3541 3656 3305 3865 
Q 3069 4075 2559 4075 
L 1109 4075 
L 1109 2559 
z
" transform="scale(0.015625)"/>
       </defs>
       <use xlink:href="#ArialMT-52"/>
      </g>
     </g>
    </g>
    <g id="xtick_5">
     <g id="text_5">
      <!-- PG-13 -->
      <g style="fill: #262626" transform="translate(298.01486 446.472673) rotate(-60) scale(0.18 -0.18)">
       <defs>
        <path id="ArialMT-33" d="M 269 1209 
L 831 1284 
Q 928 806 1161 595 
Q 1394 384 1728 384 
Q 2125 384 2398 659 
Q 2672 934 2672 1341 
Q 2672 1728 2419 1979 
Q 2166 2231 1775 2231 
Q 1616 2231 1378 2169 
L 1441 2663 
Q 1497 2656 1531 2656 
Q 1891 2656 2178 2843 
Q 2466 3031 2466 3422 
Q 2466 3731 2256 3934 
Q 2047 4138 1716 4138 
Q 1388 4138 1169 3931 
Q 950 3725 888 3313 
L 325 3413 
Q 428 3978 793 4289 
Q 1159 4600 1703 4600 
Q 2078 4600 2393 4439 
Q 2709 4278 2876 4000 
Q 3044 3722 3044 3409 
Q 3044 3113 2884 2869 
Q 2725 2625 2413 2481 
Q 2819 2388 3044 2092 
Q 3269 1797 3269 1353 
Q 3269 753 2831 336 
Q 2394 -81 1725 -81 
Q 1122 -81 723 278 
Q 325 638 269 1209 
z
" transform="scale(0.015625)"/>
       </defs>
       <use xlink:href="#ArialMT-50"/>
       <use xlink:href="#ArialMT-47" x="66.699219"/>
       <use xlink:href="#ArialMT-2d" x="144.482422"/>
       <use xlink:href="#ArialMT-31" x="177.783203"/>
       <use xlink:href="#ArialMT-33" x="233.398438"/>
      </g>
     </g>
    </g>
    <g id="xtick_6">
     <g id="text_6">
      <!-- TV-Y7 -->
      <g style="fill: #262626" transform="translate(348.734782 444.740893) rotate(-60) scale(0.18 -0.18)">
       <defs>
        <path id="ArialMT-59" d="M 1784 0 
L 1784 1941 
L 19 4581 
L 756 4581 
L 1659 3200 
Q 1909 2813 2125 2425 
Q 2331 2784 2625 3234 
L 3513 4581 
L 4219 4581 
L 2391 1941 
L 2391 0 
L 1784 0 
z
" transform="scale(0.015625)"/>
        <path id="ArialMT-37" d="M 303 3981 
L 303 4522 
L 3269 4522 
L 3269 4084 
Q 2831 3619 2401 2847 
Q 1972 2075 1738 1259 
Q 1569 684 1522 0 
L 944 0 
Q 953 541 1156 1306 
Q 1359 2072 1739 2783 
Q 2119 3494 2547 3981 
L 303 3981 
z
" transform="scale(0.015625)"/>
       </defs>
       <use xlink:href="#ArialMT-54"/>
       <use xlink:href="#ArialMT-56" x="61.083984"/>
       <use xlink:href="#ArialMT-2d" x="122.283203"/>
       <use xlink:href="#ArialMT-59" x="155.583984"/>
       <use xlink:href="#ArialMT-37" x="222.283203"/>
      </g>
     </g>
    </g>
    <g id="xtick_7">
     <g id="text_7">
      <!-- TV-Y -->
      <g style="fill: #262626" transform="translate(401.457204 436.072249) rotate(-60) scale(0.18 -0.18)">
       <use xlink:href="#ArialMT-54"/>
       <use xlink:href="#ArialMT-56" x="61.083984"/>
       <use xlink:href="#ArialMT-2d" x="122.283203"/>
       <use xlink:href="#ArialMT-59" x="155.583984"/>
      </g>
     </g>
    </g>
    <g id="xtick_8">
     <g id="text_8">
      <!-- PG -->
      <g style="fill: #262626" transform="translate(455.178063 423.944916) rotate(-60) scale(0.18 -0.18)">
       <use xlink:href="#ArialMT-50"/>
       <use xlink:href="#ArialMT-47" x="66.699219"/>
      </g>
     </g>
    </g>
    <g id="xtick_9">
     <g id="text_9">
      <!-- TV-G -->
      <g style="fill: #262626" transform="translate(501.398688 437.799158) rotate(-60) scale(0.18 -0.18)">
       <use xlink:href="#ArialMT-54"/>
       <use xlink:href="#ArialMT-56" x="61.083984"/>
       <use xlink:href="#ArialMT-2d" x="122.283203"/>
       <use xlink:href="#ArialMT-47" x="155.583984"/>
      </g>
     </g>
    </g>
    <g id="xtick_10">
     <g id="text_10">
      <!-- NR -->
      <g style="fill: #262626" transform="translate(555.620172 423.937609) rotate(-60) scale(0.18 -0.18)">
       <defs>
        <path id="ArialMT-4e" d="M 488 0 
L 488 4581 
L 1109 4581 
L 3516 984 
L 3516 4581 
L 4097 4581 
L 4097 0 
L 3475 0 
L 1069 3600 
L 1069 0 
L 488 0 
z
" transform="scale(0.015625)"/>
       </defs>
       <use xlink:href="#ArialMT-4e"/>
       <use xlink:href="#ArialMT-52" x="72.216797"/>
      </g>
     </g>
    </g>
    <g id="text_11">
     <!-- Ratings -->
     <g style="fill: #262626" transform="translate(301.585781 467.729759) scale(0.18 -0.18)">
      <defs>
       <path id="ArialMT-61" d="M 2588 409 
Q 2275 144 1986 34 
Q 1697 -75 1366 -75 
Q 819 -75 525 192 
Q 231 459 231 875 
Q 231 1119 342 1320 
Q 453 1522 633 1644 
Q 813 1766 1038 1828 
Q 1203 1872 1538 1913 
Q 2219 1994 2541 2106 
Q 2544 2222 2544 2253 
Q 2544 2597 2384 2738 
Q 2169 2928 1744 2928 
Q 1347 2928 1158 2789 
Q 969 2650 878 2297 
L 328 2372 
Q 403 2725 575 2942 
Q 747 3159 1072 3276 
Q 1397 3394 1825 3394 
Q 2250 3394 2515 3294 
Q 2781 3194 2906 3042 
Q 3031 2891 3081 2659 
Q 3109 2516 3109 2141 
L 3109 1391 
Q 3109 606 3145 398 
Q 3181 191 3288 0 
L 2700 0 
Q 2613 175 2588 409 
z
M 2541 1666 
Q 2234 1541 1622 1453 
Q 1275 1403 1131 1340 
Q 988 1278 909 1158 
Q 831 1038 831 891 
Q 831 666 1001 516 
Q 1172 366 1500 366 
Q 1825 366 2078 508 
Q 2331 650 2450 897 
Q 2541 1088 2541 1459 
L 2541 1666 
z
" transform="scale(0.015625)"/>
       <path id="ArialMT-74" d="M 1650 503 
L 1731 6 
Q 1494 -44 1306 -44 
Q 1000 -44 831 53 
Q 663 150 594 308 
Q 525 466 525 972 
L 525 2881 
L 113 2881 
L 113 3319 
L 525 3319 
L 525 4141 
L 1084 4478 
L 1084 3319 
L 1650 3319 
L 1650 2881 
L 1084 2881 
L 1084 941 
Q 1084 700 1114 631 
Q 1144 563 1211 522 
Q 1278 481 1403 481 
Q 1497 481 1650 503 
z
" transform="scale(0.015625)"/>
       <path id="ArialMT-69" d="M 425 3934 
L 425 4581 
L 988 4581 
L 988 3934 
L 425 3934 
z
M 425 0 
L 425 3319 
L 988 3319 
L 988 0 
L 425 0 
z
" transform="scale(0.015625)"/>
       <path id="ArialMT-6e" d="M 422 0 
L 422 3319 
L 928 3319 
L 928 2847 
Q 1294 3394 1984 3394 
Q 2284 3394 2536 3286 
Q 2788 3178 2913 3003 
Q 3038 2828 3088 2588 
Q 3119 2431 3119 2041 
L 3119 0 
L 2556 0 
L 2556 2019 
Q 2556 2363 2490 2533 
Q 2425 2703 2258 2804 
Q 2091 2906 1866 2906 
Q 1506 2906 1245 2678 
Q 984 2450 984 1813 
L 984 0 
L 422 0 
z
" transform="scale(0.015625)"/>
       <path id="ArialMT-67" d="M 319 -275 
L 866 -356 
Q 900 -609 1056 -725 
Q 1266 -881 1628 -881 
Q 2019 -881 2231 -725 
Q 2444 -569 2519 -288 
Q 2563 -116 2559 434 
Q 2191 0 1641 0 
Q 956 0 581 494 
Q 206 988 206 1678 
Q 206 2153 378 2554 
Q 550 2956 876 3175 
Q 1203 3394 1644 3394 
Q 2231 3394 2613 2919 
L 2613 3319 
L 3131 3319 
L 3131 450 
Q 3131 -325 2973 -648 
Q 2816 -972 2473 -1159 
Q 2131 -1347 1631 -1347 
Q 1038 -1347 672 -1080 
Q 306 -813 319 -275 
z
M 784 1719 
Q 784 1066 1043 766 
Q 1303 466 1694 466 
Q 2081 466 2343 764 
Q 2606 1063 2606 1700 
Q 2606 2309 2336 2618 
Q 2066 2928 1684 2928 
Q 1309 2928 1046 2623 
Q 784 2319 784 1719 
z
" transform="scale(0.015625)"/>
       <path id="ArialMT-73" d="M 197 991 
L 753 1078 
Q 800 744 1014 566 
Q 1228 388 1613 388 
Q 2000 388 2187 545 
Q 2375 703 2375 916 
Q 2375 1106 2209 1216 
Q 2094 1291 1634 1406 
Q 1016 1563 777 1677 
Q 538 1791 414 1992 
Q 291 2194 291 2438 
Q 291 2659 392 2848 
Q 494 3038 669 3163 
Q 800 3259 1026 3326 
Q 1253 3394 1513 3394 
Q 1903 3394 2198 3281 
Q 2494 3169 2634 2976 
Q 2775 2784 2828 2463 
L 2278 2388 
Q 2241 2644 2061 2787 
Q 1881 2931 1553 2931 
Q 1166 2931 1000 2803 
Q 834 2675 834 2503 
Q 834 2394 903 2306 
Q 972 2216 1119 2156 
Q 1203 2125 1616 2013 
Q 2213 1853 2448 1751 
Q 2684 1650 2818 1456 
Q 2953 1263 2953 975 
Q 2953 694 2789 445 
Q 2625 197 2315 61 
Q 2006 -75 1616 -75 
Q 969 -75 630 194 
Q 291 463 197 991 
z
" transform="scale(0.015625)"/>
      </defs>
      <use xlink:href="#ArialMT-52"/>
      <use xlink:href="#ArialMT-61" x="72.216797"/>
      <use xlink:href="#ArialMT-74" x="127.832031"/>
      <use xlink:href="#ArialMT-69" x="155.615234"/>
      <use xlink:href="#ArialMT-6e" x="177.832031"/>
      <use xlink:href="#ArialMT-67" x="233.447266"/>
      <use xlink:href="#ArialMT-73" x="289.0625"/>
     </g>
    </g>
   </g>
   <g id="matplotlib.axis_2">
    <g id="ytick_1">
     <g id="line2d_1">
      <path d="M 81 384.48 
L 583.2 384.48 
" clip-path="url(#p9f9ccdae2d)" style="fill: none; stroke: #cccccc; stroke-linecap: round"/>
     </g>
     <g id="text_12">
      <!-- 0 -->
      <g style="fill: #262626" transform="translate(60.490313 390.922031) scale(0.18 -0.18)">
       <defs>
        <path id="ArialMT-30" d="M 266 2259 
Q 266 3072 433 3567 
Q 600 4063 929 4331 
Q 1259 4600 1759 4600 
Q 2128 4600 2406 4451 
Q 2684 4303 2865 4023 
Q 3047 3744 3150 3342 
Q 3253 2941 3253 2259 
Q 3253 1453 3087 958 
Q 2922 463 2592 192 
Q 2263 -78 1759 -78 
Q 1097 -78 719 397 
Q 266 969 266 2259 
z
M 844 2259 
Q 844 1131 1108 757 
Q 1372 384 1759 384 
Q 2147 384 2411 759 
Q 2675 1134 2675 2259 
Q 2675 3391 2411 3762 
Q 2147 4134 1753 4134 
Q 1366 4134 1134 3806 
Q 844 3388 844 2259 
z
" transform="scale(0.015625)"/>
       </defs>
       <use xlink:href="#ArialMT-30"/>
      </g>
     </g>
    </g>
    <g id="ytick_2">
     <g id="line2d_2">
      <path d="M 81 335.088045 
L 583.2 335.088045 
" clip-path="url(#p9f9ccdae2d)" style="fill: none; stroke: #cccccc; stroke-linecap: round"/>
     </g>
     <g id="text_13">
      <!-- 500 -->
      <g style="fill: #262626" transform="translate(40.470938 341.530076) scale(0.18 -0.18)">
       <defs>
        <path id="ArialMT-35" d="M 266 1200 
L 856 1250 
Q 922 819 1161 601 
Q 1400 384 1738 384 
Q 2144 384 2425 690 
Q 2706 997 2706 1503 
Q 2706 1984 2436 2262 
Q 2166 2541 1728 2541 
Q 1456 2541 1237 2417 
Q 1019 2294 894 2097 
L 366 2166 
L 809 4519 
L 3088 4519 
L 3088 3981 
L 1259 3981 
L 1013 2750 
Q 1425 3038 1878 3038 
Q 2478 3038 2890 2622 
Q 3303 2206 3303 1553 
Q 3303 931 2941 478 
Q 2500 -78 1738 -78 
Q 1113 -78 717 272 
Q 322 622 266 1200 
z
" transform="scale(0.015625)"/>
       </defs>
       <use xlink:href="#ArialMT-35"/>
       <use xlink:href="#ArialMT-30" x="55.615234"/>
       <use xlink:href="#ArialMT-30" x="111.230469"/>
      </g>
     </g>
    </g>
    <g id="ytick_3">
     <g id="line2d_3">
      <path d="M 81 285.69609 
L 583.2 285.69609 
" clip-path="url(#p9f9ccdae2d)" style="fill: none; stroke: #cccccc; stroke-linecap: round"/>
     </g>
     <g id="text_14">
      <!-- 1000 -->
      <g style="fill: #262626" transform="translate(30.46125 292.138121) scale(0.18 -0.18)">
       <use xlink:href="#ArialMT-31"/>
       <use xlink:href="#ArialMT-30" x="55.615234"/>
       <use xlink:href="#ArialMT-30" x="111.230469"/>
       <use xlink:href="#ArialMT-30" x="166.845703"/>
      </g>
     </g>
    </g>
    <g id="ytick_4">
     <g id="line2d_4">
      <path d="M 81 236.304135 
L 583.2 236.304135 
" clip-path="url(#p9f9ccdae2d)" style="fill: none; stroke: #cccccc; stroke-linecap: round"/>
     </g>
     <g id="text_15">
      <!-- 1500 -->
      <g style="fill: #262626" transform="translate(30.46125 242.746166) scale(0.18 -0.18)">
       <use xlink:href="#ArialMT-31"/>
       <use xlink:href="#ArialMT-35" x="55.615234"/>
       <use xlink:href="#ArialMT-30" x="111.230469"/>
       <use xlink:href="#ArialMT-30" x="166.845703"/>
      </g>
     </g>
    </g>
    <g id="ytick_5">
     <g id="line2d_5">
      <path d="M 81 186.91218 
L 583.2 186.91218 
" clip-path="url(#p9f9ccdae2d)" style="fill: none; stroke: #cccccc; stroke-linecap: round"/>
     </g>
     <g id="text_16">
      <!-- 2000 -->
      <g style="fill: #262626" transform="translate(30.46125 193.354211) scale(0.18 -0.18)">
       <defs>
        <path id="ArialMT-32" d="M 3222 541 
L 3222 0 
L 194 0 
Q 188 203 259 391 
Q 375 700 629 1000 
Q 884 1300 1366 1694 
Q 2113 2306 2375 2664 
Q 2638 3022 2638 3341 
Q 2638 3675 2398 3904 
Q 2159 4134 1775 4134 
Q 1369 4134 1125 3890 
Q 881 3647 878 3216 
L 300 3275 
Q 359 3922 746 4261 
Q 1134 4600 1788 4600 
Q 2447 4600 2831 4234 
Q 3216 3869 3216 3328 
Q 3216 3053 3103 2787 
Q 2991 2522 2730 2228 
Q 2469 1934 1863 1422 
Q 1356 997 1212 845 
Q 1069 694 975 541 
L 3222 541 
z
" transform="scale(0.015625)"/>
       </defs>
       <use xlink:href="#ArialMT-32"/>
       <use xlink:href="#ArialMT-30" x="55.615234"/>
       <use xlink:href="#ArialMT-30" x="111.230469"/>
       <use xlink:href="#ArialMT-30" x="166.845703"/>
      </g>
     </g>
    </g>
    <g id="ytick_6">
     <g id="line2d_6">
      <path d="M 81 137.520225 
L 583.2 137.520225 
" clip-path="url(#p9f9ccdae2d)" style="fill: none; stroke: #cccccc; stroke-linecap: round"/>
     </g>
     <g id="text_17">
      <!-- 2500 -->
      <g style="fill: #262626" transform="translate(30.46125 143.962256) scale(0.18 -0.18)">
       <use xlink:href="#ArialMT-32"/>
       <use xlink:href="#ArialMT-35" x="55.615234"/>
       <use xlink:href="#ArialMT-30" x="111.230469"/>
       <use xlink:href="#ArialMT-30" x="166.845703"/>
      </g>
     </g>
    </g>
    <g id="ytick_7">
     <g id="line2d_7">
      <path d="M 81 88.128269 
L 583.2 88.128269 
" clip-path="url(#p9f9ccdae2d)" style="fill: none; stroke: #cccccc; stroke-linecap: round"/>
     </g>
     <g id="text_18">
      <!-- 3000 -->
      <g style="fill: #262626" transform="translate(30.46125 94.570301) scale(0.18 -0.18)">
       <use xlink:href="#ArialMT-33"/>
       <use xlink:href="#ArialMT-30" x="55.615234"/>
       <use xlink:href="#ArialMT-30" x="111.230469"/>
       <use xlink:href="#ArialMT-30" x="166.845703"/>
      </g>
     </g>
    </g>
    <g id="text_19">
     <!-- Number of videos -->
     <g style="fill: #262626" transform="translate(22.88375 288.687656) rotate(-90) scale(0.18 -0.18)">
      <defs>
       <path id="ArialMT-75" d="M 2597 0 
L 2597 488 
Q 2209 -75 1544 -75 
Q 1250 -75 995 37 
Q 741 150 617 320 
Q 494 491 444 738 
Q 409 903 409 1263 
L 409 3319 
L 972 3319 
L 972 1478 
Q 972 1038 1006 884 
Q 1059 663 1231 536 
Q 1403 409 1656 409 
Q 1909 409 2131 539 
Q 2353 669 2445 892 
Q 2538 1116 2538 1541 
L 2538 3319 
L 3100 3319 
L 3100 0 
L 2597 0 
z
" transform="scale(0.015625)"/>
       <path id="ArialMT-6d" d="M 422 0 
L 422 3319 
L 925 3319 
L 925 2853 
Q 1081 3097 1340 3245 
Q 1600 3394 1931 3394 
Q 2300 3394 2536 3241 
Q 2772 3088 2869 2813 
Q 3263 3394 3894 3394 
Q 4388 3394 4653 3120 
Q 4919 2847 4919 2278 
L 4919 0 
L 4359 0 
L 4359 2091 
Q 4359 2428 4304 2576 
Q 4250 2725 4106 2815 
Q 3963 2906 3769 2906 
Q 3419 2906 3187 2673 
Q 2956 2441 2956 1928 
L 2956 0 
L 2394 0 
L 2394 2156 
Q 2394 2531 2256 2718 
Q 2119 2906 1806 2906 
Q 1569 2906 1367 2781 
Q 1166 2656 1075 2415 
Q 984 2175 984 1722 
L 984 0 
L 422 0 
z
" transform="scale(0.015625)"/>
       <path id="ArialMT-62" d="M 941 0 
L 419 0 
L 419 4581 
L 981 4581 
L 981 2947 
Q 1338 3394 1891 3394 
Q 2197 3394 2470 3270 
Q 2744 3147 2920 2923 
Q 3097 2700 3197 2384 
Q 3297 2069 3297 1709 
Q 3297 856 2875 390 
Q 2453 -75 1863 -75 
Q 1275 -75 941 416 
L 941 0 
z
M 934 1684 
Q 934 1088 1097 822 
Q 1363 388 1816 388 
Q 2184 388 2453 708 
Q 2722 1028 2722 1663 
Q 2722 2313 2464 2622 
Q 2206 2931 1841 2931 
Q 1472 2931 1203 2611 
Q 934 2291 934 1684 
z
" transform="scale(0.015625)"/>
       <path id="ArialMT-65" d="M 2694 1069 
L 3275 997 
Q 3138 488 2766 206 
Q 2394 -75 1816 -75 
Q 1088 -75 661 373 
Q 234 822 234 1631 
Q 234 2469 665 2931 
Q 1097 3394 1784 3394 
Q 2450 3394 2872 2941 
Q 3294 2488 3294 1666 
Q 3294 1616 3291 1516 
L 816 1516 
Q 847 969 1125 678 
Q 1403 388 1819 388 
Q 2128 388 2347 550 
Q 2566 713 2694 1069 
z
M 847 1978 
L 2700 1978 
Q 2663 2397 2488 2606 
Q 2219 2931 1791 2931 
Q 1403 2931 1139 2672 
Q 875 2413 847 1978 
z
" transform="scale(0.015625)"/>
       <path id="ArialMT-72" d="M 416 0 
L 416 3319 
L 922 3319 
L 922 2816 
Q 1116 3169 1280 3281 
Q 1444 3394 1641 3394 
Q 1925 3394 2219 3213 
L 2025 2691 
Q 1819 2813 1613 2813 
Q 1428 2813 1281 2702 
Q 1134 2591 1072 2394 
Q 978 2094 978 1738 
L 978 0 
L 416 0 
z
" transform="scale(0.015625)"/>
       <path id="ArialMT-20" transform="scale(0.015625)"/>
       <path id="ArialMT-6f" d="M 213 1659 
Q 213 2581 725 3025 
Q 1153 3394 1769 3394 
Q 2453 3394 2887 2945 
Q 3322 2497 3322 1706 
Q 3322 1066 3130 698 
Q 2938 331 2570 128 
Q 2203 -75 1769 -75 
Q 1072 -75 642 372 
Q 213 819 213 1659 
z
M 791 1659 
Q 791 1022 1069 705 
Q 1347 388 1769 388 
Q 2188 388 2466 706 
Q 2744 1025 2744 1678 
Q 2744 2294 2464 2611 
Q 2184 2928 1769 2928 
Q 1347 2928 1069 2612 
Q 791 2297 791 1659 
z
" transform="scale(0.015625)"/>
       <path id="ArialMT-66" d="M 556 0 
L 556 2881 
L 59 2881 
L 59 3319 
L 556 3319 
L 556 3672 
Q 556 4006 616 4169 
Q 697 4388 901 4523 
Q 1106 4659 1475 4659 
Q 1713 4659 2000 4603 
L 1916 4113 
Q 1741 4144 1584 4144 
Q 1328 4144 1222 4034 
Q 1116 3925 1116 3625 
L 1116 3319 
L 1763 3319 
L 1763 2881 
L 1116 2881 
L 1116 0 
L 556 0 
z
" transform="scale(0.015625)"/>
       <path id="ArialMT-76" d="M 1344 0 
L 81 3319 
L 675 3319 
L 1388 1331 
Q 1503 1009 1600 663 
Q 1675 925 1809 1294 
L 2547 3319 
L 3125 3319 
L 1869 0 
L 1344 0 
z
" transform="scale(0.015625)"/>
       <path id="ArialMT-64" d="M 2575 0 
L 2575 419 
Q 2259 -75 1647 -75 
Q 1250 -75 917 144 
Q 584 363 401 755 
Q 219 1147 219 1656 
Q 219 2153 384 2558 
Q 550 2963 881 3178 
Q 1213 3394 1622 3394 
Q 1922 3394 2156 3267 
Q 2391 3141 2538 2938 
L 2538 4581 
L 3097 4581 
L 3097 0 
L 2575 0 
z
M 797 1656 
Q 797 1019 1065 703 
Q 1334 388 1700 388 
Q 2069 388 2326 689 
Q 2584 991 2584 1609 
Q 2584 2291 2321 2609 
Q 2059 2928 1675 2928 
Q 1300 2928 1048 2622 
Q 797 2316 797 1656 
z
" transform="scale(0.015625)"/>
      </defs>
      <use xlink:href="#ArialMT-4e"/>
      <use xlink:href="#ArialMT-75" x="72.216797"/>
      <use xlink:href="#ArialMT-6d" x="127.832031"/>
      <use xlink:href="#ArialMT-62" x="211.132812"/>
      <use xlink:href="#ArialMT-65" x="266.748047"/>
      <use xlink:href="#ArialMT-72" x="322.363281"/>
      <use xlink:href="#ArialMT-20" x="355.664062"/>
      <use xlink:href="#ArialMT-6f" x="383.447266"/>
      <use xlink:href="#ArialMT-66" x="439.0625"/>
      <use xlink:href="#ArialMT-20" x="466.845703"/>
      <use xlink:href="#ArialMT-76" x="494.628906"/>
      <use xlink:href="#ArialMT-69" x="544.628906"/>
      <use xlink:href="#ArialMT-64" x="566.845703"/>
      <use xlink:href="#ArialMT-65" x="622.460938"/>
      <use xlink:href="#ArialMT-6f" x="678.076172"/>
      <use xlink:href="#ArialMT-73" x="733.691406"/>
     </g>
    </g>
   </g>
   <g id="patch_2">
    <path d="M 86.022 384.48 
L 126.198 384.48 
L 126.198 67.68 
L 86.022 67.68 
z
" clip-path="url(#p9f9ccdae2d)" style="fill: #4b1178; stroke: #ffffff; stroke-width: 0.3; stroke-linejoin: miter"/>
   </g>
   <g id="patch_3">
    <path d="M 136.242 384.48 
L 176.418 384.48 
L 176.418 171.106754 
L 136.242 171.106754 
z
" clip-path="url(#p9f9ccdae2d)" style="fill: #6e1eca; stroke: #ffffff; stroke-width: 0.3; stroke-linejoin: miter"/>
   </g>
   <g id="patch_4">
    <path d="M 186.462 384.48 
L 226.638 384.48 
L 226.638 299.229486 
L 186.462 299.229486 
z
" clip-path="url(#p9f9ccdae2d)" style="fill: #8424de; stroke: #ffffff; stroke-width: 0.3; stroke-linejoin: miter"/>
   </g>
   <g id="patch_5">
    <path d="M 236.682 384.48 
L 276.858 384.48 
L 276.858 305.551656 
L 236.682 305.551656 
z
" clip-path="url(#p9f9ccdae2d)" style="fill: #8d23a9; stroke: #ffffff; stroke-width: 0.3; stroke-linejoin: miter"/>
   </g>
   <g id="patch_6">
    <path d="M 286.902 384.48 
L 327.078 384.48 
L 327.078 336.075884 
L 286.902 336.075884 
z
" clip-path="url(#p9f9ccdae2d)" style="fill: #992b4e; stroke: #ffffff; stroke-width: 0.3; stroke-linejoin: miter"/>
   </g>
   <g id="patch_7">
    <path d="M 337.122 384.48 
L 377.298 384.48 
L 377.298 351.486174 
L 337.122 351.486174 
z
" clip-path="url(#p9f9ccdae2d)" style="fill: #a53718; stroke: #ffffff; stroke-width: 0.3; stroke-linejoin: miter"/>
   </g>
   <g id="patch_8">
    <path d="M 387.342 384.48 
L 427.518 384.48 
L 427.518 354.15334 
L 387.342 354.15334 
z
" clip-path="url(#p9f9ccdae2d)" style="fill: #b24a19; stroke: #ffffff; stroke-width: 0.3; stroke-linejoin: miter"/>
   </g>
   <g id="patch_9">
    <path d="M 437.562 384.48 
L 477.738 384.48 
L 477.738 356.129018 
L 437.562 356.129018 
z
" clip-path="url(#p9f9ccdae2d)" style="fill: #bf651b; stroke: #ffffff; stroke-width: 0.3; stroke-linejoin: miter"/>
   </g>
   <g id="patch_10">
    <path d="M 487.782 384.48 
L 527.958 384.48 
L 527.958 362.74754 
L 487.782 362.74754 
z
" clip-path="url(#p9f9ccdae2d)" style="fill: #ca861d; stroke: #ffffff; stroke-width: 0.3; stroke-linejoin: miter"/>
   </g>
   <g id="patch_11">
    <path d="M 538.002 384.48 
L 578.178 384.48 
L 578.178 376.577287 
L 538.002 376.577287 
z
" clip-path="url(#p9f9ccdae2d)" style="fill: #d5ae1e; stroke: #ffffff; stroke-width: 0.3; stroke-linejoin: miter"/>
   </g>
   <g id="line2d_8">
    <path clip-path="url(#p9f9ccdae2d)" style="fill: none; stroke: #424242; stroke-width: 3.15; stroke-linecap: round"/>
   </g>
   <g id="line2d_9">
    <path clip-path="url(#p9f9ccdae2d)" style="fill: none; stroke: #424242; stroke-width: 3.15; stroke-linecap: round"/>
   </g>
   <g id="line2d_10">
    <path clip-path="url(#p9f9ccdae2d)" style="fill: none; stroke: #424242; stroke-width: 3.15; stroke-linecap: round"/>
   </g>
   <g id="line2d_11">
    <path clip-path="url(#p9f9ccdae2d)" style="fill: none; stroke: #424242; stroke-width: 3.15; stroke-linecap: round"/>
   </g>
   <g id="line2d_12">
    <path clip-path="url(#p9f9ccdae2d)" style="fill: none; stroke: #424242; stroke-width: 3.15; stroke-linecap: round"/>
   </g>
   <g id="line2d_13">
    <path clip-path="url(#p9f9ccdae2d)" style="fill: none; stroke: #424242; stroke-width: 3.15; stroke-linecap: round"/>
   </g>
   <g id="line2d_14">
    <path clip-path="url(#p9f9ccdae2d)" style="fill: none; stroke: #424242; stroke-width: 3.15; stroke-linecap: round"/>
   </g>
   <g id="line2d_15">
    <path clip-path="url(#p9f9ccdae2d)" style="fill: none; stroke: #424242; stroke-width: 3.15; stroke-linecap: round"/>
   </g>
   <g id="line2d_16">
    <path clip-path="url(#p9f9ccdae2d)" style="fill: none; stroke: #424242; stroke-width: 3.15; stroke-linecap: round"/>
   </g>
   <g id="line2d_17">
    <path clip-path="url(#p9f9ccdae2d)" style="fill: none; stroke: #424242; stroke-width: 3.15; stroke-linecap: round"/>
   </g>
   <g id="text_20">
    <g id="patch_12">
     <path d="M 86.599453 237.285869 
C 91.099453 241.785869 121.120547 241.785869 125.620547 237.285869 
C 130.120547 232.785869 130.120547 219.067901 125.620547 214.567901 
C 121.120547 210.067901 91.099453 210.067901 86.599453 214.567901 
C 82.099453 219.067901 82.099453 232.785869 86.599453 237.285869 
z
" style="fill: #ffffff; stroke: #000000; stroke-width: 2; stroke-linejoin: miter"/>
    </g>
    <!-- 36% -->
    <g style="fill: #262626" transform="translate(91.099453 229.804619) scale(0.15 -0.15)">
     <defs>
      <path id="ArialMT-36" d="M 3184 3459 
L 2625 3416 
Q 2550 3747 2413 3897 
Q 2184 4138 1850 4138 
Q 1581 4138 1378 3988 
Q 1113 3794 959 3422 
Q 806 3050 800 2363 
Q 1003 2672 1297 2822 
Q 1591 2972 1913 2972 
Q 2475 2972 2870 2558 
Q 3266 2144 3266 1488 
Q 3266 1056 3080 686 
Q 2894 316 2569 119 
Q 2244 -78 1831 -78 
Q 1128 -78 684 439 
Q 241 956 241 2144 
Q 241 3472 731 4075 
Q 1159 4600 1884 4600 
Q 2425 4600 2770 4297 
Q 3116 3994 3184 3459 
z
M 888 1484 
Q 888 1194 1011 928 
Q 1134 663 1356 523 
Q 1578 384 1822 384 
Q 2178 384 2434 671 
Q 2691 959 2691 1453 
Q 2691 1928 2437 2201 
Q 2184 2475 1800 2475 
Q 1419 2475 1153 2201 
Q 888 1928 888 1484 
z
" transform="scale(0.015625)"/>
      <path id="ArialMT-25" d="M 372 3481 
Q 372 3972 619 4315 
Q 866 4659 1334 4659 
Q 1766 4659 2048 4351 
Q 2331 4044 2331 3447 
Q 2331 2866 2045 2552 
Q 1759 2238 1341 2238 
Q 925 2238 648 2547 
Q 372 2856 372 3481 
z
M 1350 4272 
Q 1141 4272 1002 4090 
Q 863 3909 863 3425 
Q 863 2984 1003 2804 
Q 1144 2625 1350 2625 
Q 1563 2625 1702 2806 
Q 1841 2988 1841 3469 
Q 1841 3913 1700 4092 
Q 1559 4272 1350 4272 
z
M 1353 -169 
L 3859 4659 
L 4316 4659 
L 1819 -169 
L 1353 -169 
z
M 3334 1075 
Q 3334 1569 3581 1911 
Q 3828 2253 4300 2253 
Q 4731 2253 5014 1945 
Q 5297 1638 5297 1041 
Q 5297 459 5011 145 
Q 4725 -169 4303 -169 
Q 3888 -169 3611 142 
Q 3334 453 3334 1075 
z
M 4316 1866 
Q 4103 1866 3964 1684 
Q 3825 1503 3825 1019 
Q 3825 581 3965 400 
Q 4106 219 4313 219 
Q 4528 219 4667 400 
Q 4806 581 4806 1063 
Q 4806 1506 4665 1686 
Q 4525 1866 4316 1866 
z
" transform="scale(0.015625)"/>
     </defs>
     <use xlink:href="#ArialMT-33"/>
     <use xlink:href="#ArialMT-36" x="55.615234"/>
     <use xlink:href="#ArialMT-25" x="111.230469"/>
    </g>
   </g>
   <g id="text_21">
    <g id="patch_13">
     <path d="M 136.819453 288.999246 
C 141.319453 293.499246 171.340547 293.499246 175.840547 288.999246 
C 180.340547 284.499246 180.340547 270.781278 175.840547 266.281278 
C 171.340547 261.781278 141.319453 261.781278 136.819453 266.281278 
C 132.319453 270.781278 132.319453 284.499246 136.819453 288.999246 
z
" style="fill: #ffffff; stroke: #000000; stroke-width: 2; stroke-linejoin: miter"/>
    </g>
    <!-- 25% -->
    <g style="fill: #262626" transform="translate(141.319453 281.517996) scale(0.15 -0.15)">
     <use xlink:href="#ArialMT-32"/>
     <use xlink:href="#ArialMT-35" x="55.615234"/>
     <use xlink:href="#ArialMT-25" x="111.230469"/>
    </g>
   </g>
   <g id="text_22">
    <g id="patch_14">
     <path d="M 187.039453 353.060612 
C 191.539453 357.560612 221.560547 357.560612 226.060547 353.060612 
C 230.560547 348.560612 230.560547 334.842643 226.060547 330.342643 
C 221.560547 325.842643 191.539453 325.842643 187.039453 330.342643 
C 182.539453 334.842643 182.539453 348.560612 187.039453 353.060612 
z
" style="fill: #ffffff; stroke: #000000; stroke-width: 2; stroke-linejoin: miter"/>
    </g>
    <!-- 10% -->
    <g style="fill: #262626" transform="translate(191.539453 345.579362) scale(0.15 -0.15)">
     <use xlink:href="#ArialMT-31"/>
     <use xlink:href="#ArialMT-30" x="55.615234"/>
     <use xlink:href="#ArialMT-25" x="111.230469"/>
    </g>
   </g>
   <g id="text_23">
    <g id="patch_15">
     <path d="M 241.430156 356.221697 
C 245.930156 360.721697 267.609844 360.721697 272.109844 356.221697 
C 276.609844 351.721697 276.609844 338.003728 272.109844 333.503728 
C 267.609844 329.003728 245.930156 329.003728 241.430156 333.503728 
C 236.930156 338.003728 236.930156 351.721697 241.430156 356.221697 
z
" style="fill: #ffffff; stroke: #000000; stroke-width: 2; stroke-linejoin: miter"/>
    </g>
    <!-- 9% -->
    <g style="fill: #262626" transform="translate(245.930156 348.740447) scale(0.15 -0.15)">
     <defs>
      <path id="ArialMT-39" d="M 350 1059 
L 891 1109 
Q 959 728 1153 556 
Q 1347 384 1650 384 
Q 1909 384 2104 503 
Q 2300 622 2425 820 
Q 2550 1019 2634 1356 
Q 2719 1694 2719 2044 
Q 2719 2081 2716 2156 
Q 2547 1888 2255 1720 
Q 1963 1553 1622 1553 
Q 1053 1553 659 1965 
Q 266 2378 266 3053 
Q 266 3750 677 4175 
Q 1088 4600 1706 4600 
Q 2153 4600 2523 4359 
Q 2894 4119 3086 3673 
Q 3278 3228 3278 2384 
Q 3278 1506 3087 986 
Q 2897 466 2520 194 
Q 2144 -78 1638 -78 
Q 1100 -78 759 220 
Q 419 519 350 1059 
z
M 2653 3081 
Q 2653 3566 2395 3850 
Q 2138 4134 1775 4134 
Q 1400 4134 1122 3828 
Q 844 3522 844 3034 
Q 844 2597 1108 2323 
Q 1372 2050 1759 2050 
Q 2150 2050 2401 2323 
Q 2653 2597 2653 3081 
z
" transform="scale(0.015625)"/>
     </defs>
     <use xlink:href="#ArialMT-39"/>
     <use xlink:href="#ArialMT-25" x="55.615234"/>
    </g>
   </g>
   <g id="text_24">
    <g id="patch_16">
     <path d="M 291.650156 371.483811 
C 296.150156 375.983811 317.829844 375.983811 322.329844 371.483811 
C 326.829844 366.983811 326.829844 353.265843 322.329844 348.765843 
C 317.829844 344.265843 296.150156 344.265843 291.650156 348.765843 
C 287.150156 353.265843 287.150156 366.983811 291.650156 371.483811 
z
" style="fill: #ffffff; stroke: #000000; stroke-width: 2; stroke-linejoin: miter"/>
    </g>
    <!-- 6% -->
    <g style="fill: #262626" transform="translate(296.150156 364.002561) scale(0.15 -0.15)">
     <use xlink:href="#ArialMT-36"/>
     <use xlink:href="#ArialMT-25" x="55.615234"/>
    </g>
   </g>
   <g id="text_25">
    <g id="patch_17">
     <path d="M 341.870156 379.188956 
C 346.370156 383.688956 368.049844 383.688956 372.549844 379.188956 
C 377.049844 374.688956 377.049844 360.970988 372.549844 356.470988 
C 368.049844 351.970988 346.370156 351.970988 341.870156 356.470988 
C 337.370156 360.970988 337.370156 374.688956 341.870156 379.188956 
z
" style="fill: #ffffff; stroke: #000000; stroke-width: 2; stroke-linejoin: miter"/>
    </g>
    <!-- 4% -->
    <g style="fill: #262626" transform="translate(346.370156 371.707706) scale(0.15 -0.15)">
     <use xlink:href="#ArialMT-34"/>
     <use xlink:href="#ArialMT-25" x="55.615234"/>
    </g>
   </g>
   <g id="text_26">
    <g id="patch_18">
     <path d="M 392.090156 380.522539 
C 396.590156 385.022539 418.269844 385.022539 422.769844 380.522539 
C 427.269844 376.022539 427.269844 362.30457 422.769844 357.80457 
C 418.269844 353.30457 396.590156 353.30457 392.090156 357.80457 
C 387.590156 362.30457 387.590156 376.022539 392.090156 380.522539 
z
" style="fill: #ffffff; stroke: #000000; stroke-width: 2; stroke-linejoin: miter"/>
    </g>
    <!-- 3% -->
    <g style="fill: #262626" transform="translate(396.590156 373.041289) scale(0.15 -0.15)">
     <use xlink:href="#ArialMT-33"/>
     <use xlink:href="#ArialMT-25" x="55.615234"/>
    </g>
   </g>
   <g id="text_27">
    <g id="patch_19">
     <path d="M 442.310156 381.510378 
C 446.810156 386.010378 468.489844 386.010378 472.989844 381.510378 
C 477.489844 377.010378 477.489844 363.292409 472.989844 358.792409 
C 468.489844 354.292409 446.810156 354.292409 442.310156 358.792409 
C 437.810156 363.292409 437.810156 377.010378 442.310156 381.510378 
z
" style="fill: #ffffff; stroke: #000000; stroke-width: 2; stroke-linejoin: miter"/>
    </g>
    <!-- 3% -->
    <g style="fill: #262626" transform="translate(446.810156 374.029128) scale(0.15 -0.15)">
     <use xlink:href="#ArialMT-33"/>
     <use xlink:href="#ArialMT-25" x="55.615234"/>
    </g>
   </g>
   <g id="text_28">
    <g id="patch_20">
     <path d="M 492.530156 384.819639 
C 497.030156 389.319639 518.709844 389.319639 523.209844 384.819639 
C 527.709844 380.319639 527.709844 366.60167 523.209844 362.10167 
C 518.709844 357.60167 497.030156 357.60167 492.530156 362.10167 
C 488.030156 366.60167 488.030156 380.319639 492.530156 384.819639 
z
" style="fill: #ffffff; stroke: #000000; stroke-width: 2; stroke-linejoin: miter"/>
    </g>
    <!-- 2% -->
    <g style="fill: #262626" transform="translate(497.030156 377.338389) scale(0.15 -0.15)">
     <use xlink:href="#ArialMT-32"/>
     <use xlink:href="#ArialMT-25" x="55.615234"/>
    </g>
   </g>
   <g id="text_29">
    <g id="patch_21">
     <path d="M 542.750156 391.734513 
C 547.250156 396.234513 568.929844 396.234513 573.429844 391.734513 
C 577.929844 387.234513 577.929844 373.516544 573.429844 369.016544 
C 568.929844 364.516544 547.250156 364.516544 542.750156 369.016544 
C 538.250156 373.516544 538.250156 387.234513 542.750156 391.734513 
z
" style="fill: #ffffff; stroke: #000000; stroke-width: 2; stroke-linejoin: miter"/>
    </g>
    <!-- 1% -->
    <g style="fill: #262626" transform="translate(547.250156 384.253263) scale(0.15 -0.15)">
     <use xlink:href="#ArialMT-31"/>
     <use xlink:href="#ArialMT-25" x="55.615234"/>
    </g>
   </g>
   <g id="text_30">
    <!-- Number of videos grouped by rating -->
    <g style="fill: #0000ff" transform="translate(212.874609 45.84) scale(0.15 -0.15)">
     <defs>
      <path id="ArialMT-70" d="M 422 -1272 
L 422 3319 
L 934 3319 
L 934 2888 
Q 1116 3141 1344 3267 
Q 1572 3394 1897 3394 
Q 2322 3394 2647 3175 
Q 2972 2956 3137 2557 
Q 3303 2159 3303 1684 
Q 3303 1175 3120 767 
Q 2938 359 2589 142 
Q 2241 -75 1856 -75 
Q 1575 -75 1351 44 
Q 1128 163 984 344 
L 984 -1272 
L 422 -1272 
z
M 931 1641 
Q 931 1000 1190 694 
Q 1450 388 1819 388 
Q 2194 388 2461 705 
Q 2728 1022 2728 1688 
Q 2728 2322 2467 2637 
Q 2206 2953 1844 2953 
Q 1484 2953 1207 2617 
Q 931 2281 931 1641 
z
" transform="scale(0.015625)"/>
      <path id="ArialMT-79" d="M 397 -1278 
L 334 -750 
Q 519 -800 656 -800 
Q 844 -800 956 -737 
Q 1069 -675 1141 -563 
Q 1194 -478 1313 -144 
Q 1328 -97 1363 -6 
L 103 3319 
L 709 3319 
L 1400 1397 
Q 1534 1031 1641 628 
Q 1738 1016 1872 1384 
L 2581 3319 
L 3144 3319 
L 1881 -56 
Q 1678 -603 1566 -809 
Q 1416 -1088 1222 -1217 
Q 1028 -1347 759 -1347 
Q 597 -1347 397 -1278 
z
" transform="scale(0.015625)"/>
     </defs>
     <use xlink:href="#ArialMT-4e"/>
     <use xlink:href="#ArialMT-75" x="72.216797"/>
     <use xlink:href="#ArialMT-6d" x="127.832031"/>
     <use xlink:href="#ArialMT-62" x="211.132812"/>
     <use xlink:href="#ArialMT-65" x="266.748047"/>
     <use xlink:href="#ArialMT-72" x="322.363281"/>
     <use xlink:href="#ArialMT-20" x="355.664062"/>
     <use xlink:href="#ArialMT-6f" x="383.447266"/>
     <use xlink:href="#ArialMT-66" x="439.0625"/>
     <use xlink:href="#ArialMT-20" x="466.845703"/>
     <use xlink:href="#ArialMT-76" x="494.628906"/>
     <use xlink:href="#ArialMT-69" x="544.628906"/>
     <use xlink:href="#ArialMT-64" x="566.845703"/>
     <use xlink:href="#ArialMT-65" x="622.460938"/>
     <use xlink:href="#ArialMT-6f" x="678.076172"/>
     <use xlink:href="#ArialMT-73" x="733.691406"/>
     <use xlink:href="#ArialMT-20" x="783.691406"/>
     <use xlink:href="#ArialMT-67" x="811.474609"/>
     <use xlink:href="#ArialMT-72" x="867.089844"/>
     <use xlink:href="#ArialMT-6f" x="900.390625"/>
     <use xlink:href="#ArialMT-75" x="956.005859"/>
     <use xlink:href="#ArialMT-70" x="1011.621094"/>
     <use xlink:href="#ArialMT-65" x="1067.236328"/>
     <use xlink:href="#ArialMT-64" x="1122.851562"/>
     <use xlink:href="#ArialMT-20" x="1178.466797"/>
     <use xlink:href="#ArialMT-62" x="1206.25"/>
     <use xlink:href="#ArialMT-79" x="1261.865234"/>
     <use xlink:href="#ArialMT-20" x="1311.865234"/>
     <use xlink:href="#ArialMT-72" x="1339.648438"/>
     <use xlink:href="#ArialMT-61" x="1372.949219"/>
     <use xlink:href="#ArialMT-74" x="1428.564453"/>
     <use xlink:href="#ArialMT-69" x="1456.347656"/>
     <use xlink:href="#ArialMT-6e" x="1478.564453"/>
     <use xlink:href="#ArialMT-67" x="1534.179688"/>
    </g>
   </g>
  </g>
 </g>
 <defs>
  <clipPath id="p9f9ccdae2d">
   <rect x="81" y="51.84" width="502.2" height="332.64"/>
  </clipPath>
 </defs>
</svg>
